<?xml version="1.0" ?><svg width="64px" height="64px" viewBox="0 0 64 64" xmlns="http://www.w3.org/2000/svg"><g id="a"/><g id="b"/><g id="c"/><g id="d"/><g id="e"/><g id="f"/><g id="g"/><g id="h"/><g id="i"/><g id="j"/><g id="k"/><g id="l"/><g id="m"/><g id="n"/><g id="o"/><g id="p"/><g id="q"/><g id="r"/><g id="s"/><g id="t"/><g id="u"/><g id="v"/><g id="w"/><g id="x"/><g id="y"/><g id="a`"/><g id="aa"/><g id="ab"/><g id="ac"/><g id="ad"/><g id="ae"/><g id="af"/><g id="ag"/><g id="ah"><path d="M15.1,53.48l1.76-3.48h0l9.35-18.52-6.51,2.11-7.29,6.26c-.23,.38-.31,.82-.23,1.25l2.65,11.53c.07,.3,.16,.58,.28,.87Z" fill="#8598ab" id="ai"/><path d="M16.01,6.51l2.96,.84,.34,2.28,.11,2.2-3.05,1.04-1.71-1.55c-.44-.4-.58-1.04-.35-1.59l1.06-2.52c.13-.29,.35-.54,.63-.69h0Z" fill="#d7e5eb" id="aj"/><path d="M16.01,6.51l2.07,6.06,2.55-2.9-4.62-3.15Z" fill="#c0d8df" id="ak"/><path d="M22.84,5.74l-1.11,3.76-2.41,.12-3.3-3.11c.23-.14,.49-.22,.76-.23h5.58l.5-.54Z" fill="#e2eef2" id="al"/><path d="M47.14,50l-9.35-18.52-5.71-2.02-5.89,2.02-9.35,18.52,15.15,3.39,15.13-3.39Z" fill="#d7e5eb" id="am"/><path d="M26.2,31.48l-13.52,11.88-.52-2.26c-.09-.4-.04-.82,.14-1.2l7.24-5.62,6.65-2.8Z" fill="#758797" id="an"/><path d="M12.4,39.84l13.81-8.37-1.95-1.25-3.67,1.25-7.93,7.93c-.1,.13-.19,.28-.25,.43Z" fill="#9dacb9" id="ao"/><path d="M26.27,59l1.62-3.03-3.45-5.97h-7.58l-1.76,3.48c.13,.33,.29,.65,.49,.95l2.4,3.72c.34,.52,.92,.84,1.54,.84h6.74Z" fill="#f0f4f6" id="ap"/><path d="M26.2,31.48l-9.35,18.52,2.64,.59,6.71-19.11Z" fill="#c0d8df" id="aq"/><path d="M16.86,50l-1.76,3.48c.13,.33,.29,.65,.49,.95l1.66,2.57,2.46-7h-2.84Z" fill="#e2eef2" id="ar"/><path d="M37.8,31.48l9.35,18.52-2.64,.59-6.71-19.11Z" fill="#c0d8df" id="as"/><path d="M47.14,50l1.76,3.48c-.13,.33-.29,.65-.49,.95l-1.66,2.57-2.46-7h2.84Z" fill="#e2eef2" id="at"/><path d="M37.73,59l-1.62-3.03,3.45-5.97h2.98v-2.58l-5.27-5.66h-10.54l-5.27,5.66v2.58h2.98l3.45,5.97-1.62,3.03h11.47Z" fill="#8598ab" id="au"/><path d="M48.9,53.48l-1.76-3.48h-7.58l-3.45,5.97,1.62,3.03h6.73c.62,0,1.21-.32,1.54-.84l2.4-3.72c.19-.3,.36-.62,.49-.95Z" fill="#f0f4f6" id="av"/><path d="M51.69,39.9l-7.24-5.62-6.65-2.8,9.35,18.52h0l1.76,3.48c.12-.28,.21-.57,.28-.87l2.65-11.53c.09-.4,.04-.82-.14-1.2Z" fill="#8598ab" id="aw"/><path d="M37.8,31.48l13.52,11.88,.52-2.26c.09-.4,.04-.82-.14-1.2l-7.24-5.62-6.65-2.8Z" fill="#758797" id="ax"/><path d="M43.42,31.48l-3-1.64-2.62,1.64,13.9,8.42c-.09-.18-.2-.34-.34-.49l-7.93-7.93Z" fill="#9dacb9" id="ay"/><path d="M24.34,19.38l-6.65,5.11,2.89,6.99h22.84l.21-.21,2.87-6.78-6.65-5.12h-15.5Z" fill="#f9fbfc" id="b`"/><path d="M38.58,20.21l5.56,4.28,.36-4.82-2.32-2.4-3.6,2.95Z" fill="#9dacb9" id="ba"/><path d="M20.05,24.49l5.56-4.28-3.6-2.95-2.32,2.4,.36,4.82Z" fill="#9dacb9" id="bb"/><path d="M47.99,6.51l-2.96,.84-.34,2.28-.11,2.2,3.05,1.04,1.71-1.55c.44-.4,.58-1.04,.35-1.59l-1.06-2.52c-.13-.29-.35-.54-.63-.69h0Z" fill="#d7e5eb" id="bc"/><path d="M47.99,6.51l-2.07,6.06-2.55-2.9,4.62-3.15Z" fill="#c0d8df" id="bd"/><path d="M41.16,5.74l1.11,3.76,2.41,.12,3.3-3.11c-.23-.14-.49-.22-.76-.23h-5.58l-.5-.54Z" fill="#e2eef2" id="be"/><path d="M22.84,5.74h0l-.49,.55-2.99,3.29-2.99,3.29h0l-.48,.52-.11,.12h0c-.43,.48-.67,1.1-.67,1.74v9.75c0,.64,.25,1.25,.71,1.71l4.77,4.77-.53-6.99h0l-.36-4.82,2.32-2.4,3.6,2.95h0l6.48,5.31,6.48-5.31h0l3.6-2.95,2.32,2.4-.36,4.82h0l-.51,6.78,4.56-4.56c.45-.45,.71-1.07,.71-1.71V15.25c0-.64-.24-1.26-.67-1.74l-.58-.64-2.94-3.24-3.53-3.89h0c-.43-.47-1.03-.74-1.67-.74h-14.98c-.63,0-1.24,.27-1.67,.74h0Z" fill="#f0f4f6" id="bf"/><path d="M11.19,41.32l2.65,11.53c.18,.76,.48,1.48,.9,2.13l2.4,3.72c.52,.81,1.42,1.3,2.38,1.3h24.94c.97,0,1.86-.48,2.38-1.3l2.4-3.73c.42-.66,.73-1.37,.9-2.13l2.65-11.53c.22-.95-.06-1.92-.75-2.61l-7.22-7.23,4.06-4.06c.65-.64,1-1.5,1-2.41V15.25c0-.85-.3-1.67-.85-2.31l.97-.88c.76-.69,1-1.78,.6-2.72l-1.07-2.52c-.39-.93-1.3-1.53-2.31-1.53h-5.13l-.2-.22c-.62-.68-1.5-1.07-2.41-1.07h-14.98c-.92,0-1.8,.39-2.41,1.07h0l-.2,.22h-5.13c-1.01,0-1.92,.6-2.31,1.53l-1.07,2.52c-.4,.94-.16,2.04,.6,2.72l.97,.88c-.55,.65-.85,1.46-.85,2.31v9.75c0,.91,.35,1.77,1,2.41l4.06,4.06-7.22,7.23c-.69,.69-.97,1.66-.75,2.61Zm1.95-.45c-.03-.14,.07-.25,.11-.37l10.49-6.36-8.34,16.53-2.26-9.8Zm7.62-20.28c-.03-.35,.1-.69,.34-.95l.91-.95s.07-.03,.11,0l1.84,1.53-3.05,2.35-.15-1.98Zm.75,9.89l-.42-5.52,4.45-3.42,5.05,4.2c.82,.68,2,.68,2.82,0l5.05-4.2,4.45,3.42-.42,5.52h-4.69s0,0-.01,0H21.51Zm21.58-7.91l-3.05-2.35,1.84-1.53s.08-.02,.11,0l.91,.95c.24,.25,.37,.6,.34,.95l-.15,1.98Zm-.49,23.44l-3.91-4.2c-.62-.67-1.5-1.05-2.41-1.05h-8.54c-.91,0-1.79,.38-2.41,1.05l-3.91,4.2c-.61,.66-.95,1.51-.95,2.41v.58h-1.97l8.34-16.52h10.36l8.34,16.52h-1.98v-.58c0-.9-.34-1.76-.95-2.41Zm-6.92,11.26l.39,.73h-8.13l.39-.73c.45-.85,.43-1.89-.06-2.72l-2.48-4.2c-.49-.83-1.4-1.35-2.37-1.35h-.96v-.58c0-.39,.15-.76,.41-1.05l3.91-4.2c.24-.26,.59-.41,.95-.41h8.54c.36,0,.7,.15,.95,.41l3.91,4.2c.27,.29,.41,.66,.41,1.05v.58h-.96c-.97,0-1.88,.52-2.37,1.35l-2.48,4.2c-.49,.83-.51,1.87-.06,2.72Zm-16.85,.34l-2.4-3.72c-.09-.14-.11-.3-.19-.44l1.23-2.45h5.94c.27,0,.51,.14,.65,.37l2.48,4.2c.14,.23,.14,.52,.02,.76l-.89,1.67h-6.14c-.29,0-.55-.14-.7-.38Zm26.34,0c-.15,.24-.42,.38-.7,.38h-6.14l-.89-1.67c-.13-.24-.12-.53,.02-.76l2.48-4.2c.13-.23,.38-.37,.65-.37h5.94l1.23,2.45c-.07,.14-.1,.31-.19,.45l-2.4,3.72Zm3.43-6.94l-8.34-16.53,10.49,6.36c.04,.13,.14,.24,.11,.37l-2.26,9.8Zm-3.1-15.7l-4.12-2.5h1.63l2.5,2.5Zm3.16-24.4l-.96,.88-1.61-1.78,1.78-1.68,.89,2.12c.07,.16,.03,.35-.1,.46Zm-2.95-3.3l-.97,.92-.83-.92h1.8Zm-25.63,0l-.8,.88-.96-.88h1.75Zm-4.85,2.83l.9-2.14,1.81,1.66-1.65,1.82-.96-.88c-.13-.12-.17-.3-.1-.46Zm1.29,15.88c-.26-.26-.41-.63-.41-1V15.25c0-.4,.15-.77,.41-1.07l.59-.64h0l5.98-6.59h0l.49-.54c.24-.26,.58-.41,.93-.41h14.98c.35,0,.69,.15,.93,.41l.49,.54h0l6.56,7.23c.27,.29,.41,.67,.41,1.07v9.75c0,.37-.15,.74-.41,1l-2.86,2.86,.61-8.12c.07-.92-.26-1.82-.9-2.49l-.91-.95c-.75-.78-1.99-.85-2.82-.15l-8.47,7.04c-.08,.06-.18,.06-.26,0l-8.47-7.04c-.83-.69-2.07-.62-2.82,.15l-.91,.95c-.64,.66-.97,1.57-.9,2.49l.61,8.13-2.86-2.86Zm4.48,6.47h1.63l-4.12,2.5,2.5-2.5Z"/></g><g id="bg"/><g id="bh"/><g id="bi"/><g id="bj"/><g id="bk"/><g id="bl"/><g id="bm"/><g id="bn"/><g id="bo"/><g id="bp"/><g id="bq"/><g id="br"/><g id="bs"/><g id="bt"/><g id="bu"/><g id="bv"/></svg>